<mxfile host="65bd71144e">
    <diagram id="498Lh0KwQ5i9-Wk21Ufg" name="Page-1">
        <mxGraphModel dx="2039" dy="811" grid="1" gridSize="10" guides="1" tooltips="1" connect="1" arrows="1" fold="1" page="1" pageScale="1" pageWidth="850" pageHeight="1100" math="0" shadow="0">
            <root>
                <mxCell id="0"/>
                <mxCell id="1" parent="0"/>
                <mxCell id="3" style="edgeStyle=none;html=1;fontColor=#000000;strokeColor=#000000;" edge="1" parent="1" source="2" target="4">
                    <mxGeometry relative="1" as="geometry">
                        <mxPoint x="420" y="400" as="targetPoint"/>
                    </mxGeometry>
                </mxCell>
                <mxCell id="2" value="Início" style="rounded=1;whiteSpace=wrap;html=1;fontColor=#000000;strokeColor=#000000;" vertex="1" parent="1">
                    <mxGeometry x="360" y="260" width="120" height="60" as="geometry"/>
                </mxCell>
                <mxCell id="6" value="" style="edgeStyle=none;html=1;strokeColor=#000000;fontColor=#000000;" edge="1" parent="1" source="4">
                    <mxGeometry relative="1" as="geometry">
                        <mxPoint x="420" y="510" as="sourcePoint"/>
                        <mxPoint x="420" y="570" as="targetPoint"/>
                    </mxGeometry>
                </mxCell>
                <mxCell id="4" value="inicia servidor" style="outlineConnect=0;dashed=0;verticalLabelPosition=bottom;verticalAlign=top;align=center;html=1;shape=mxgraph.aws3.dynamo_db;fillColor=#0050ef;strokeColor=#001DBC;fontColor=#ffffff;horizontal=1;spacing=-51;fontStyle=1" vertex="1" parent="1">
                    <mxGeometry x="372" y="400" width="96" height="100" as="geometry"/>
                </mxCell>
                <mxCell id="11" value="" style="edgeStyle=none;html=1;strokeColor=#000000;fontColor=#000000;" edge="1" parent="1" source="8" target="10">
                    <mxGeometry relative="1" as="geometry"/>
                </mxCell>
                <mxCell id="19" value="Erro" style="edgeLabel;html=1;align=center;verticalAlign=middle;resizable=0;points=[];fontColor=#000000;" vertex="1" connectable="0" parent="11">
                    <mxGeometry x="0.4571" relative="1" as="geometry">
                        <mxPoint as="offset"/>
                    </mxGeometry>
                </mxCell>
                <mxCell id="8" value="Epera dos elementos Usuario" style="rounded=0;whiteSpace=wrap;html=1;strokeColor=#000000;fontColor=#000000;" vertex="1" parent="1">
                    <mxGeometry x="360" y="570" width="120" height="60" as="geometry"/>
                </mxCell>
                <mxCell id="9" value="Central&amp;nbsp;&lt;br&gt;Controler" style="text;html=1;align=center;verticalAlign=middle;whiteSpace=wrap;rounded=0;fillColor=#647687;fontColor=#ffffff;strokeColor=#314354;" vertex="1" parent="1">
                    <mxGeometry x="390" y="210" width="60" height="30" as="geometry"/>
                </mxCell>
                <mxCell id="15" style="edgeStyle=none;html=1;strokeColor=#000000;fontColor=#000000;" edge="1" parent="1" source="10">
                    <mxGeometry relative="1" as="geometry">
                        <mxPoint x="420" y="530" as="targetPoint"/>
                        <Array as="points">
                            <mxPoint x="580" y="740"/>
                            <mxPoint x="580" y="530"/>
                        </Array>
                    </mxGeometry>
                </mxCell>
                <mxCell id="16" value="&amp;nbsp;Sim&amp;nbsp;" style="edgeLabel;html=1;align=center;verticalAlign=middle;resizable=0;points=[];fontColor=#000000;" vertex="1" connectable="0" parent="15">
                    <mxGeometry x="-0.8531" y="-2" relative="1" as="geometry">
                        <mxPoint x="24" y="-2" as="offset"/>
                    </mxGeometry>
                </mxCell>
                <mxCell id="17" style="edgeStyle=none;html=1;strokeColor=#000000;fontColor=#000000;entryX=0.5;entryY=0;entryDx=0;entryDy=0;startArrow=none;" edge="1" parent="1" source="29" target="21">
                    <mxGeometry relative="1" as="geometry">
                        <mxPoint x="420" y="850" as="targetPoint"/>
                    </mxGeometry>
                </mxCell>
                <mxCell id="10" value="==True" style="rhombus;whiteSpace=wrap;html=1;strokeColor=#000000;fontColor=#000000;rounded=0;" vertex="1" parent="1">
                    <mxGeometry x="380" y="700" width="80" height="80" as="geometry"/>
                </mxCell>
                <mxCell id="24" value="" style="edgeStyle=none;html=1;strokeColor=#000000;fontColor=#000000;" edge="1" parent="1" source="21" target="23">
                    <mxGeometry relative="1" as="geometry"/>
                </mxCell>
                <mxCell id="21" value="coleta os dados dos sensores" style="shape=parallelogram;perimeter=parallelogramPerimeter;whiteSpace=wrap;html=1;fixedSize=1;strokeColor=#000000;fontColor=#000000;rounded=0;" vertex="1" parent="1">
                    <mxGeometry x="340" y="870" width="160" height="70" as="geometry"/>
                </mxCell>
                <mxCell id="26" value="" style="edgeStyle=none;html=1;strokeColor=#000000;fontColor=#000000;" edge="1" parent="1" source="23" target="25">
                    <mxGeometry relative="1" as="geometry"/>
                </mxCell>
                <mxCell id="23" value="SA + SB = soma" style="whiteSpace=wrap;html=1;strokeColor=#000000;fontColor=#000000;rounded=0;" vertex="1" parent="1">
                    <mxGeometry x="360" y="1005" width="120" height="60" as="geometry"/>
                </mxCell>
                <mxCell id="27" style="edgeStyle=none;html=1;strokeColor=#000000;fontColor=#000000;" edge="1" parent="1" source="25">
                    <mxGeometry relative="1" as="geometry">
                        <mxPoint x="425" y="1300" as="targetPoint"/>
                    </mxGeometry>
                </mxCell>
                <mxCell id="28" value="sim&amp;nbsp;" style="edgeLabel;html=1;align=center;verticalAlign=middle;resizable=0;points=[];fontColor=#000000;" vertex="1" connectable="0" parent="27">
                    <mxGeometry x="-0.3387" y="2" relative="1" as="geometry">
                        <mxPoint as="offset"/>
                    </mxGeometry>
                </mxCell>
                <mxCell id="30" value="" style="edgeStyle=none;html=1;strokeColor=#000000;fontColor=#000000;" edge="1" parent="1" source="25" target="29">
                    <mxGeometry relative="1" as="geometry">
                        <Array as="points">
                            <mxPoint x="600" y="1170"/>
                            <mxPoint x="600" y="840"/>
                        </Array>
                    </mxGeometry>
                </mxCell>
                <mxCell id="31" value="&amp;nbsp;Não&amp;nbsp;" style="edgeLabel;html=1;align=center;verticalAlign=middle;resizable=0;points=[];fontColor=#000000;" vertex="1" connectable="0" parent="30">
                    <mxGeometry x="-0.5429" relative="1" as="geometry">
                        <mxPoint x="-50" y="53" as="offset"/>
                    </mxGeometry>
                </mxCell>
                <mxCell id="25" value="soma-soma_anterior&amp;gt;=500" style="rhombus;whiteSpace=wrap;html=1;strokeColor=#000000;fontColor=#000000;rounded=0;" vertex="1" parent="1">
                    <mxGeometry x="330" y="1120" width="190" height="105" as="geometry"/>
                </mxCell>
                <mxCell id="32" value="" style="edgeStyle=none;html=1;strokeColor=#000000;fontColor=#000000;entryDx=0;entryDy=0;endArrow=none;" edge="1" parent="1" source="10" target="29">
                    <mxGeometry relative="1" as="geometry">
                        <mxPoint x="420" y="870" as="targetPoint"/>
                        <mxPoint x="420" y="780" as="sourcePoint"/>
                    </mxGeometry>
                </mxCell>
                <mxCell id="33" value="Não" style="edgeLabel;html=1;align=center;verticalAlign=middle;resizable=0;points=[];fontColor=#000000;" vertex="1" connectable="0" parent="32">
                    <mxGeometry x="-0.5143" y="-2" relative="1" as="geometry">
                        <mxPoint x="2" y="13" as="offset"/>
                    </mxGeometry>
                </mxCell>
                <mxCell id="29" value="" style="shape=waypoint;sketch=0;size=6;pointerEvents=1;points=[];fillColor=default;resizable=0;rotatable=0;perimeter=centerPerimeter;snapToPoint=1;strokeColor=#000000;fontColor=#000000;rounded=0;" vertex="1" parent="1">
                    <mxGeometry x="410" y="830" width="20" height="20" as="geometry"/>
                </mxCell>
                <mxCell id="37" value="" style="edgeStyle=none;html=1;strokeColor=#000000;fontColor=#000000;" edge="1" parent="1" source="34">
                    <mxGeometry relative="1" as="geometry">
                        <mxPoint x="425" y="1380" as="targetPoint"/>
                    </mxGeometry>
                </mxCell>
                <mxCell id="34" value="pesso = pesso + SA*2 + SB*5" style="whiteSpace=wrap;html=1;strokeColor=#000000;fontColor=#000000;rounded=0;" vertex="1" parent="1">
                    <mxGeometry x="365" y="1280" width="120" height="60" as="geometry"/>
                </mxCell>
                <mxCell id="38" style="edgeStyle=none;html=1;strokeColor=#000000;fontColor=#000000;" edge="1" parent="1" source="36" target="29">
                    <mxGeometry relative="1" as="geometry">
                        <Array as="points">
                            <mxPoint x="600" y="1520"/>
                            <mxPoint x="600" y="840"/>
                        </Array>
                    </mxGeometry>
                </mxCell>
                <mxCell id="36" value="soma_anterior = soma" style="whiteSpace=wrap;html=1;strokeColor=#000000;fontColor=#000000;rounded=0;" vertex="1" parent="1">
                    <mxGeometry x="365" y="1490" width="120" height="60" as="geometry"/>
                </mxCell>
                <mxCell id="43" value="" style="edgeStyle=none;html=1;strokeColor=#000000;fontColor=#000000;" edge="1" parent="1" source="39" target="42">
                    <mxGeometry relative="1" as="geometry"/>
                </mxCell>
                <mxCell id="39" value="Início" style="rounded=1;whiteSpace=wrap;html=1;fontColor=#000000;strokeColor=#000000;" vertex="1" parent="1">
                    <mxGeometry x="800" y="260" width="120" height="60" as="geometry"/>
                </mxCell>
                <mxCell id="40" value="Sensor A" style="text;html=1;strokeColor=#001DBC;fillColor=#0050ef;align=center;verticalAlign=middle;whiteSpace=wrap;rounded=0;fontColor=#ffffff;" vertex="1" parent="1">
                    <mxGeometry x="830" y="210" width="60" height="30" as="geometry"/>
                </mxCell>
                <mxCell id="48" value="" style="edgeStyle=none;html=1;strokeColor=#000000;fontColor=#000000;entryX=0.5;entryY=0;entryDx=0;entryDy=0;" edge="1" parent="1" source="42" target="46">
                    <mxGeometry relative="1" as="geometry">
                        <mxPoint x="860" y="560" as="targetPoint"/>
                    </mxGeometry>
                </mxCell>
                <mxCell id="42" value="User sensor create" style="html=1;verticalLabelPosition=bottom;align=center;labelBackgroundColor=#ffffff;verticalAlign=top;strokeWidth=2;strokeColor=#0080F0;shadow=0;dashed=0;shape=mxgraph.ios7.icons.user;fontColor=#000000;" vertex="1" parent="1">
                    <mxGeometry x="827.5" y="390" width="65" height="60" as="geometry"/>
                </mxCell>
                <mxCell id="50" value="" style="edgeStyle=none;html=1;strokeColor=#000000;fontColor=#000000;" edge="1" parent="1" source="46" target="49">
                    <mxGeometry relative="1" as="geometry"/>
                </mxCell>
                <mxCell id="51" value="Erro" style="edgeLabel;html=1;align=center;verticalAlign=middle;resizable=0;points=[];fontColor=#000000;" vertex="1" connectable="0" parent="50">
                    <mxGeometry x="0.442" y="5" relative="1" as="geometry">
                        <mxPoint x="-5" y="-10" as="offset"/>
                    </mxGeometry>
                </mxCell>
                <mxCell id="46" value="Epera conectar" style="rounded=0;whiteSpace=wrap;html=1;strokeColor=#000000;fontColor=#000000;" vertex="1" parent="1">
                    <mxGeometry x="800" y="570" width="120" height="60" as="geometry"/>
                </mxCell>
                <mxCell id="53" value="" style="edgeStyle=none;html=1;strokeColor=#000000;fontColor=#000000;" edge="1" parent="1" source="49" target="52">
                    <mxGeometry relative="1" as="geometry">
                        <Array as="points">
                            <mxPoint x="960" y="740"/>
                            <mxPoint x="960" y="520"/>
                        </Array>
                    </mxGeometry>
                </mxCell>
                <mxCell id="54" value="&amp;nbsp;Sim&amp;nbsp;" style="edgeLabel;html=1;align=center;verticalAlign=middle;resizable=0;points=[];fontColor=#000000;" vertex="1" connectable="0" parent="53">
                    <mxGeometry x="-0.9018" y="2" relative="1" as="geometry">
                        <mxPoint x="12" y="2" as="offset"/>
                    </mxGeometry>
                </mxCell>
                <mxCell id="56" style="edgeStyle=none;html=1;entryX=0.5;entryY=0;entryDx=0;entryDy=0;strokeColor=#000000;fontColor=#000000;" edge="1" parent="1" source="49" target="55">
                    <mxGeometry relative="1" as="geometry"/>
                </mxCell>
                <mxCell id="57" value="I = 0" style="edgeLabel;html=1;align=center;verticalAlign=middle;resizable=0;points=[];fontColor=#000000;" vertex="1" connectable="0" parent="56">
                    <mxGeometry x="0.2889" y="2" relative="1" as="geometry">
                        <mxPoint x="-2" as="offset"/>
                    </mxGeometry>
                </mxCell>
                <mxCell id="58" value="Não&amp;nbsp;" style="edgeLabel;html=1;align=center;verticalAlign=middle;resizable=0;points=[];fontColor=#000000;" vertex="1" connectable="0" parent="56">
                    <mxGeometry x="-0.5722" y="-2" relative="1" as="geometry">
                        <mxPoint x="2" as="offset"/>
                    </mxGeometry>
                </mxCell>
                <mxCell id="49" value="==True" style="rhombus;whiteSpace=wrap;html=1;strokeColor=#000000;fontColor=#000000;rounded=0;" vertex="1" parent="1">
                    <mxGeometry x="820" y="700" width="80" height="80" as="geometry"/>
                </mxCell>
                <mxCell id="52" value="" style="shape=waypoint;sketch=0;size=6;pointerEvents=1;points=[];fillColor=default;resizable=0;rotatable=0;perimeter=centerPerimeter;snapToPoint=1;strokeColor=#000000;fontColor=#000000;rounded=0;" vertex="1" parent="1">
                    <mxGeometry x="850" y="510" width="20" height="20" as="geometry"/>
                </mxCell>
                <mxCell id="59" style="edgeStyle=none;html=1;strokeColor=#000000;fontColor=#000000;startArrow=none;" edge="1" parent="1" source="65">
                    <mxGeometry relative="1" as="geometry">
                        <mxPoint x="860" y="990" as="targetPoint"/>
                    </mxGeometry>
                </mxCell>
                <mxCell id="55" value="I = I + 1" style="whiteSpace=wrap;html=1;strokeColor=#000000;fontColor=#000000;rounded=0;" vertex="1" parent="1">
                    <mxGeometry x="800" y="870" width="120" height="60" as="geometry"/>
                </mxCell>
                <mxCell id="63" value="" style="edgeStyle=none;html=1;strokeColor=#000000;fontColor=#000000;" edge="1" parent="1" source="60" target="62">
                    <mxGeometry relative="1" as="geometry"/>
                </mxCell>
                <mxCell id="77" style="edgeStyle=entityRelationEdgeStyle;html=1;entryX=1;entryY=0.5;entryDx=0;entryDy=0;strokeColor=#001DBC;fontColor=#000000;dashed=1;fillColor=#0050ef;" edge="1" parent="1" source="60" target="21">
                    <mxGeometry relative="1" as="geometry"/>
                </mxCell>
                <mxCell id="60" value="enviar para o servidor&amp;nbsp;" style="whiteSpace=wrap;html=1;strokeColor=#000000;fontColor=#000000;rounded=0;" vertex="1" parent="1">
                    <mxGeometry x="800" y="990" width="120" height="60" as="geometry"/>
                </mxCell>
                <mxCell id="66" value="" style="edgeStyle=none;html=1;strokeColor=#000000;fontColor=#000000;" edge="1" parent="1" source="62" target="65">
                    <mxGeometry relative="1" as="geometry">
                        <Array as="points">
                            <mxPoint x="1000" y="1160"/>
                            <mxPoint x="1000" y="960"/>
                        </Array>
                    </mxGeometry>
                </mxCell>
                <mxCell id="68" value="&amp;nbsp;Sim&amp;nbsp;" style="edgeLabel;html=1;align=center;verticalAlign=middle;resizable=0;points=[];fontColor=#000000;" vertex="1" connectable="0" parent="66">
                    <mxGeometry x="-0.8295" y="3" relative="1" as="geometry">
                        <mxPoint as="offset"/>
                    </mxGeometry>
                </mxCell>
                <mxCell id="73" value="" style="edgeStyle=none;html=1;strokeColor=#000000;fontColor=#000000;entryX=0;entryY=0.5;entryDx=0;entryDy=0;" edge="1" parent="1" source="62" target="55">
                    <mxGeometry relative="1" as="geometry">
                        <mxPoint x="700" y="1160" as="targetPoint"/>
                        <Array as="points">
                            <mxPoint x="730" y="1160"/>
                            <mxPoint x="730" y="900"/>
                        </Array>
                    </mxGeometry>
                </mxCell>
                <mxCell id="62" value="erro envio" style="rhombus;whiteSpace=wrap;html=1;strokeColor=#000000;fontColor=#000000;rounded=0;" vertex="1" parent="1">
                    <mxGeometry x="820" y="1120" width="80" height="80" as="geometry"/>
                </mxCell>
                <mxCell id="67" value="" style="edgeStyle=none;html=1;strokeColor=#000000;fontColor=#000000;endArrow=none;" edge="1" parent="1" source="55" target="65">
                    <mxGeometry relative="1" as="geometry">
                        <mxPoint x="860" y="990" as="targetPoint"/>
                        <mxPoint x="860" y="930" as="sourcePoint"/>
                    </mxGeometry>
                </mxCell>
                <mxCell id="65" value="" style="shape=waypoint;sketch=0;size=6;pointerEvents=1;points=[];fillColor=default;resizable=0;rotatable=0;perimeter=centerPerimeter;snapToPoint=1;strokeColor=#000000;fontColor=#000000;rounded=0;" vertex="1" parent="1">
                    <mxGeometry x="850" y="950" width="20" height="20" as="geometry"/>
                </mxCell>
                <mxCell id="78" value="" style="edgeStyle=none;html=1;strokeColor=#000000;fontColor=#000000;" edge="1" parent="1" source="79" target="82">
                    <mxGeometry relative="1" as="geometry"/>
                </mxCell>
                <mxCell id="79" value="Início" style="rounded=1;whiteSpace=wrap;html=1;fontColor=#000000;strokeColor=#000000;" vertex="1" parent="1">
                    <mxGeometry x="-70" y="260" width="120" height="60" as="geometry"/>
                </mxCell>
                <mxCell id="80" value="Sensor B" style="text;html=1;strokeColor=#3700CC;fillColor=#6a00ff;align=center;verticalAlign=middle;whiteSpace=wrap;rounded=0;fontColor=#ffffff;" vertex="1" parent="1">
                    <mxGeometry x="-40" y="210" width="60" height="30" as="geometry"/>
                </mxCell>
                <mxCell id="81" value="" style="edgeStyle=none;html=1;strokeColor=#000000;fontColor=#000000;entryX=0.5;entryY=0;entryDx=0;entryDy=0;" edge="1" parent="1" source="82" target="85">
                    <mxGeometry relative="1" as="geometry">
                        <mxPoint x="-10" y="560" as="targetPoint"/>
                    </mxGeometry>
                </mxCell>
                <mxCell id="82" value="User sensor create" style="html=1;verticalLabelPosition=bottom;align=center;labelBackgroundColor=#ffffff;verticalAlign=top;strokeWidth=2;strokeColor=#0080F0;shadow=0;dashed=0;shape=mxgraph.ios7.icons.user;fontColor=#000000;" vertex="1" parent="1">
                    <mxGeometry x="-42.5" y="390" width="65" height="60" as="geometry"/>
                </mxCell>
                <mxCell id="83" value="" style="edgeStyle=none;html=1;strokeColor=#000000;fontColor=#000000;" edge="1" parent="1" source="85" target="91">
                    <mxGeometry relative="1" as="geometry"/>
                </mxCell>
                <mxCell id="84" value="Erro" style="edgeLabel;html=1;align=center;verticalAlign=middle;resizable=0;points=[];fontColor=#000000;" vertex="1" connectable="0" parent="83">
                    <mxGeometry x="0.442" y="5" relative="1" as="geometry">
                        <mxPoint x="-5" y="-10" as="offset"/>
                    </mxGeometry>
                </mxCell>
                <mxCell id="85" value="Epera conectar" style="rounded=0;whiteSpace=wrap;html=1;strokeColor=#000000;fontColor=#000000;" vertex="1" parent="1">
                    <mxGeometry x="-70" y="570" width="120" height="60" as="geometry"/>
                </mxCell>
                <mxCell id="86" value="" style="edgeStyle=none;html=1;strokeColor=#000000;fontColor=#000000;" edge="1" parent="1" source="91" target="92">
                    <mxGeometry relative="1" as="geometry">
                        <Array as="points">
                            <mxPoint x="90" y="740"/>
                            <mxPoint x="90" y="520"/>
                        </Array>
                    </mxGeometry>
                </mxCell>
                <mxCell id="87" value="&amp;nbsp;Sim&amp;nbsp;" style="edgeLabel;html=1;align=center;verticalAlign=middle;resizable=0;points=[];fontColor=#000000;" vertex="1" connectable="0" parent="86">
                    <mxGeometry x="-0.9018" y="2" relative="1" as="geometry">
                        <mxPoint x="12" y="2" as="offset"/>
                    </mxGeometry>
                </mxCell>
                <mxCell id="88" style="edgeStyle=none;html=1;entryX=0.5;entryY=0;entryDx=0;entryDy=0;strokeColor=#000000;fontColor=#000000;" edge="1" parent="1" source="91" target="94">
                    <mxGeometry relative="1" as="geometry"/>
                </mxCell>
                <mxCell id="89" value="I = 0" style="edgeLabel;html=1;align=center;verticalAlign=middle;resizable=0;points=[];fontColor=#000000;" vertex="1" connectable="0" parent="88">
                    <mxGeometry x="0.2889" y="2" relative="1" as="geometry">
                        <mxPoint x="-2" as="offset"/>
                    </mxGeometry>
                </mxCell>
                <mxCell id="90" value="Não&amp;nbsp;" style="edgeLabel;html=1;align=center;verticalAlign=middle;resizable=0;points=[];fontColor=#000000;" vertex="1" connectable="0" parent="88">
                    <mxGeometry x="-0.5722" y="-2" relative="1" as="geometry">
                        <mxPoint x="2" as="offset"/>
                    </mxGeometry>
                </mxCell>
                <mxCell id="91" value="==True" style="rhombus;whiteSpace=wrap;html=1;strokeColor=#000000;fontColor=#000000;rounded=0;" vertex="1" parent="1">
                    <mxGeometry x="-50" y="700" width="80" height="80" as="geometry"/>
                </mxCell>
                <mxCell id="92" value="" style="shape=waypoint;sketch=0;size=6;pointerEvents=1;points=[];fillColor=default;resizable=0;rotatable=0;perimeter=centerPerimeter;snapToPoint=1;strokeColor=#000000;fontColor=#000000;rounded=0;" vertex="1" parent="1">
                    <mxGeometry x="-20" y="510" width="20" height="20" as="geometry"/>
                </mxCell>
                <mxCell id="93" style="edgeStyle=none;html=1;strokeColor=#000000;fontColor=#000000;startArrow=none;" edge="1" parent="1" source="102">
                    <mxGeometry relative="1" as="geometry">
                        <mxPoint x="-10" y="990" as="targetPoint"/>
                    </mxGeometry>
                </mxCell>
                <mxCell id="94" value="I = I + 1" style="whiteSpace=wrap;html=1;strokeColor=#000000;fontColor=#000000;rounded=0;" vertex="1" parent="1">
                    <mxGeometry x="-70" y="870" width="120" height="60" as="geometry"/>
                </mxCell>
                <mxCell id="95" value="" style="edgeStyle=none;html=1;strokeColor=#000000;fontColor=#000000;" edge="1" parent="1" source="96" target="100">
                    <mxGeometry relative="1" as="geometry"/>
                </mxCell>
                <mxCell id="105" style="edgeStyle=entityRelationEdgeStyle;html=1;entryX=0;entryY=0.5;entryDx=0;entryDy=0;dashed=1;strokeColor=#3700CC;fontColor=#0080F0;fillColor=#6a00ff;" edge="1" parent="1" source="96" target="21">
                    <mxGeometry relative="1" as="geometry"/>
                </mxCell>
                <mxCell id="96" value="enviar para o servidor&amp;nbsp;" style="whiteSpace=wrap;html=1;strokeColor=#000000;fontColor=#000000;rounded=0;" vertex="1" parent="1">
                    <mxGeometry x="-70" y="990" width="120" height="60" as="geometry"/>
                </mxCell>
                <mxCell id="97" value="" style="edgeStyle=none;html=1;strokeColor=#000000;fontColor=#000000;" edge="1" parent="1" source="100" target="102">
                    <mxGeometry relative="1" as="geometry">
                        <Array as="points">
                            <mxPoint x="130" y="1160"/>
                            <mxPoint x="130" y="960"/>
                        </Array>
                    </mxGeometry>
                </mxCell>
                <mxCell id="98" value="&amp;nbsp;Sim&amp;nbsp;" style="edgeLabel;html=1;align=center;verticalAlign=middle;resizable=0;points=[];fontColor=#000000;" vertex="1" connectable="0" parent="97">
                    <mxGeometry x="-0.8295" y="3" relative="1" as="geometry">
                        <mxPoint as="offset"/>
                    </mxGeometry>
                </mxCell>
                <mxCell id="99" value="" style="edgeStyle=none;html=1;strokeColor=#000000;fontColor=#000000;entryX=0;entryY=0.5;entryDx=0;entryDy=0;" edge="1" parent="1" source="100" target="94">
                    <mxGeometry relative="1" as="geometry">
                        <mxPoint x="-170" y="1160" as="targetPoint"/>
                        <Array as="points">
                            <mxPoint x="-140" y="1160"/>
                            <mxPoint x="-140" y="900"/>
                        </Array>
                    </mxGeometry>
                </mxCell>
                <mxCell id="100" value="erro envio" style="rhombus;whiteSpace=wrap;html=1;strokeColor=#000000;fontColor=#000000;rounded=0;" vertex="1" parent="1">
                    <mxGeometry x="-50" y="1120" width="80" height="80" as="geometry"/>
                </mxCell>
                <mxCell id="101" value="" style="edgeStyle=none;html=1;strokeColor=#000000;fontColor=#000000;endArrow=none;" edge="1" parent="1" source="94" target="102">
                    <mxGeometry relative="1" as="geometry">
                        <mxPoint x="-10" y="990" as="targetPoint"/>
                        <mxPoint x="-10" y="930" as="sourcePoint"/>
                    </mxGeometry>
                </mxCell>
                <mxCell id="102" value="" style="shape=waypoint;sketch=0;size=6;pointerEvents=1;points=[];fillColor=default;resizable=0;rotatable=0;perimeter=centerPerimeter;snapToPoint=1;strokeColor=#000000;fontColor=#000000;rounded=0;" vertex="1" parent="1">
                    <mxGeometry x="-20" y="950" width="20" height="20" as="geometry"/>
                </mxCell>
                <mxCell id="103" value="2S" style="html=1;verticalLabelPosition=bottom;align=center;labelBackgroundColor=none;verticalAlign=top;strokeWidth=2;strokeColor=#0080F0;shadow=0;dashed=0;shape=mxgraph.ios7.icons.gauge;fontColor=#0080F0;fontStyle=1" vertex="1" parent="1">
                    <mxGeometry x="20" y="860" width="32.4" height="31.5" as="geometry"/>
                </mxCell>
                <mxCell id="104" value="1S" style="html=1;verticalLabelPosition=bottom;align=center;labelBackgroundColor=none;verticalAlign=top;strokeWidth=2;strokeColor=#0080F0;shadow=0;dashed=0;shape=mxgraph.ios7.icons.gauge;fontColor=#0080F0;fontStyle=1" vertex="1" parent="1">
                    <mxGeometry x="890" y="860" width="32.4" height="31.5" as="geometry"/>
                </mxCell>
                <mxCell id="109" value="" style="edgeStyle=entityRelationEdgeStyle;html=1;dashed=1;strokeColor=#000000;fontColor=#0080F0;" edge="1" parent="1" source="107" target="36">
                    <mxGeometry relative="1" as="geometry"/>
                </mxCell>
                <mxCell id="110" value="" style="html=1;strokeColor=#000000;fontColor=#0080F0;" edge="1" parent="1" source="107" target="36">
                    <mxGeometry relative="1" as="geometry"/>
                </mxCell>
                <mxCell id="140" style="edgeStyle=entityRelationEdgeStyle;html=1;entryX=0;entryY=0.25;entryDx=0;entryDy=0;strokeColor=#6F0000;fontColor=#0080F0;dashed=1;fillColor=#a20025;" edge="1" parent="1" source="107" target="138">
                    <mxGeometry relative="1" as="geometry"/>
                </mxCell>
                <mxCell id="107" value="enviar para o User Dsplay&amp;nbsp;" style="whiteSpace=wrap;html=1;strokeColor=#000000;fontColor=#000000;rounded=0;" vertex="1" parent="1">
                    <mxGeometry x="365" y="1380" width="120" height="60" as="geometry"/>
                </mxCell>
                <mxCell id="111" value="" style="edgeStyle=none;html=1;strokeColor=#000000;fontColor=#000000;" edge="1" parent="1" source="112" target="115">
                    <mxGeometry relative="1" as="geometry"/>
                </mxCell>
                <mxCell id="112" value="Início" style="rounded=1;whiteSpace=wrap;html=1;fontColor=#000000;strokeColor=#000000;" vertex="1" parent="1">
                    <mxGeometry x="-30" y="1805" width="120" height="60" as="geometry"/>
                </mxCell>
                <mxCell id="113" value="Dsplay" style="text;html=1;strokeColor=#6F0000;fillColor=#a20025;align=center;verticalAlign=middle;whiteSpace=wrap;rounded=0;fontColor=#ffffff;" vertex="1" parent="1">
                    <mxGeometry x="-140" y="1820" width="60" height="30" as="geometry"/>
                </mxCell>
                <mxCell id="114" value="" style="edgeStyle=none;html=1;strokeColor=#000000;fontColor=#000000;startArrow=none;" edge="1" parent="1" source="125" target="118">
                    <mxGeometry relative="1" as="geometry">
                        <mxPoint x="420" y="2090" as="targetPoint"/>
                    </mxGeometry>
                </mxCell>
                <mxCell id="115" value="User Dsplay create" style="html=1;verticalLabelPosition=bottom;align=center;labelBackgroundColor=#ffffff;verticalAlign=top;strokeWidth=2;strokeColor=#0080F0;shadow=0;dashed=0;shape=mxgraph.ios7.icons.user;fontColor=#000000;" vertex="1" parent="1">
                    <mxGeometry x="170" y="1805" width="65" height="60" as="geometry"/>
                </mxCell>
                <mxCell id="116" value="" style="edgeStyle=none;html=1;strokeColor=#000000;fontColor=#000000;" edge="1" parent="1" source="118" target="124">
                    <mxGeometry relative="1" as="geometry"/>
                </mxCell>
                <mxCell id="117" value="Erro" style="edgeLabel;html=1;align=center;verticalAlign=middle;resizable=0;points=[];fontColor=#000000;" vertex="1" connectable="0" parent="116">
                    <mxGeometry x="0.442" y="5" relative="1" as="geometry">
                        <mxPoint x="-12" y="5" as="offset"/>
                    </mxGeometry>
                </mxCell>
                <mxCell id="118" value="Epera conectar" style="rounded=0;whiteSpace=wrap;html=1;strokeColor=#000000;fontColor=#000000;" vertex="1" parent="1">
                    <mxGeometry x="348" y="1805" width="120" height="60" as="geometry"/>
                </mxCell>
                <mxCell id="119" value="" style="edgeStyle=none;html=1;strokeColor=#000000;fontColor=#000000;" edge="1" parent="1" source="124" target="125">
                    <mxGeometry relative="1" as="geometry">
                        <Array as="points">
                            <mxPoint x="570" y="1720"/>
                            <mxPoint x="290" y="1720"/>
                        </Array>
                    </mxGeometry>
                </mxCell>
                <mxCell id="120" value="&amp;nbsp;Sim&amp;nbsp;" style="edgeLabel;html=1;align=center;verticalAlign=middle;resizable=0;points=[];fontColor=#000000;" vertex="1" connectable="0" parent="119">
                    <mxGeometry x="-0.9018" y="2" relative="1" as="geometry">
                        <mxPoint x="2" y="2" as="offset"/>
                    </mxGeometry>
                </mxCell>
                <mxCell id="121" style="edgeStyle=none;html=1;entryX=0;entryY=0.5;entryDx=0;entryDy=0;strokeColor=#000000;fontColor=#000000;startArrow=none;" edge="1" parent="1" source="145" target="138">
                    <mxGeometry relative="1" as="geometry">
                        <mxPoint x="767.5" y="1805" as="targetPoint"/>
                    </mxGeometry>
                </mxCell>
                <mxCell id="124" value="==True" style="rhombus;whiteSpace=wrap;html=1;strokeColor=#000000;fontColor=#000000;rounded=0;" vertex="1" parent="1">
                    <mxGeometry x="530" y="1795" width="80" height="80" as="geometry"/>
                </mxCell>
                <mxCell id="137" value="" style="edgeStyle=none;html=1;strokeColor=#000000;fontColor=#000000;endArrow=none;" edge="1" parent="1" source="115" target="125">
                    <mxGeometry relative="1" as="geometry">
                        <mxPoint x="348" y="1835" as="targetPoint"/>
                        <mxPoint x="235" y="1835" as="sourcePoint"/>
                    </mxGeometry>
                </mxCell>
                <mxCell id="125" value="" style="shape=waypoint;sketch=0;size=6;pointerEvents=1;points=[];fillColor=default;resizable=0;rotatable=0;perimeter=centerPerimeter;snapToPoint=1;strokeColor=#000000;fontColor=#000000;rounded=0;" vertex="1" parent="1">
                    <mxGeometry x="280" y="1825" width="20" height="20" as="geometry"/>
                </mxCell>
                <mxCell id="143" value="" style="edgeStyle=none;html=1;strokeColor=#000000;fontColor=#0080F0;" edge="1" parent="1" source="138" target="142">
                    <mxGeometry relative="1" as="geometry"/>
                </mxCell>
                <mxCell id="138" value="Recebe dados do &lt;br&gt;servidor" style="shape=parallelogram;perimeter=parallelogramPerimeter;whiteSpace=wrap;html=1;fixedSize=1;strokeColor=#000000;fontColor=#000000;rounded=0;" vertex="1" parent="1">
                    <mxGeometry x="732.5" y="1800" width="160" height="70" as="geometry"/>
                </mxCell>
                <mxCell id="146" value="" style="edgeStyle=none;html=1;strokeColor=#000000;fontColor=#000000;" edge="1" parent="1" source="142" target="145">
                    <mxGeometry relative="1" as="geometry">
                        <Array as="points">
                            <mxPoint x="690" y="1970"/>
                        </Array>
                    </mxGeometry>
                </mxCell>
                <mxCell id="142" value="Print (soma) e (peso)" style="rounded=1;whiteSpace=wrap;html=1;labelBackgroundColor=none;strokeColor=#000000;fontColor=#000000;" vertex="1" parent="1">
                    <mxGeometry x="752.5" y="1940" width="120" height="60" as="geometry"/>
                </mxCell>
                <mxCell id="147" value="" style="edgeStyle=none;html=1;entryDx=0;entryDy=0;strokeColor=#000000;fontColor=#000000;endArrow=none;" edge="1" parent="1" source="124" target="145">
                    <mxGeometry relative="1" as="geometry">
                        <mxPoint x="610" y="1835" as="sourcePoint"/>
                        <mxPoint x="742.5" y="1835" as="targetPoint"/>
                    </mxGeometry>
                </mxCell>
                <mxCell id="148" value="Não&amp;nbsp;" style="edgeLabel;html=1;align=center;verticalAlign=middle;resizable=0;points=[];fontColor=#000000;" vertex="1" connectable="0" parent="147">
                    <mxGeometry x="-0.5722" y="-2" relative="1" as="geometry">
                        <mxPoint x="22" y="-2" as="offset"/>
                    </mxGeometry>
                </mxCell>
                <mxCell id="145" value="" style="shape=waypoint;sketch=0;size=6;pointerEvents=1;points=[];fillColor=default;resizable=0;rotatable=0;perimeter=centerPerimeter;snapToPoint=1;strokeColor=#000000;fontColor=#000000;rounded=1;labelBackgroundColor=none;" vertex="1" parent="1">
                    <mxGeometry x="680" y="1825" width="20" height="20" as="geometry"/>
                </mxCell>
                <mxCell id="149" value="2S" style="html=1;verticalLabelPosition=bottom;align=center;labelBackgroundColor=none;verticalAlign=top;strokeWidth=2;strokeColor=#0080F0;shadow=0;dashed=0;shape=mxgraph.ios7.icons.gauge;fontColor=#0080F0;fontStyle=1" vertex="1" parent="1">
                    <mxGeometry x="837.6" y="1908.5" width="32.4" height="31.5" as="geometry"/>
                </mxCell>
            </root>
        </mxGraphModel>
    </diagram>
</mxfile>